<mxfile host="app.diagrams.net" modified="2024-01-24T02:43:16.153Z" agent="Mozilla/5.0 (Macintosh; Intel Mac OS X 10_15_7) AppleWebKit/537.36 (KHTML, like Gecko) Chrome/120.0.0.0 Safari/537.36" version="22.1.21" etag="I52eYlB9DDHZ4A_2Bv3Z" type="github">
  <diagram name="Page-1" id="AKaSW3HObK16bR-E8IS7">
    <mxGraphModel>
      <root>
        <mxCell id="0" />
        <mxCell id="1" parent="0" />
      </root>
    </mxGraphModel>
  </diagram>
</mxfile>
